<svg id="visual" viewBox="0 0 900 200" width="900" height="200" xmlns="http://www.w3.org/2000/svg" xmlns:xlink="http://www.w3.org/1999/xlink" version="1.1"><rect x="0" y="0" width="900" height="200" fill="#F6FFF8"></rect><path d="M0 164L129 164L129 143L257 143L257 97L386 97L386 135L514 135L514 90L643 90L643 127L771 127L771 149L900 149L900 148L900 0L900 0L771 0L771 0L643 0L643 0L514 0L514 0L386 0L386 0L257 0L257 0L129 0L129 0L0 0Z" fill="#a4c3b2"></path><path d="M0 126L129 126L129 103L257 103L257 60L386 60L386 115L514 115L514 88L643 88L643 90L771 90L771 102L900 102L900 84L900 0L900 0L771 0L771 0L643 0L643 0L514 0L514 0L386 0L386 0L257 0L257 0L129 0L129 0L0 0Z" fill="#87a999"></path><path d="M0 36L129 36L129 56L257 56L257 44L386 44L386 28L514 28L514 82L643 82L643 53L771 53L771 75L900 75L900 83L900 0L900 0L771 0L771 0L643 0L643 0L514 0L514 0L386 0L386 0L257 0L257 0L129 0L129 0L0 0Z" fill="#6b9080"></path></svg>