<svg id="visual" viewBox="0 0 900 300" width="900" height="300" xmlns="http://www.w3.org/2000/svg" xmlns:xlink="http://www.w3.org/1999/xlink" version="1.1"><rect x="0" y="0" width="900" height="300" fill="#F6FFF8"></rect><path d="M0 165L82 165L82 165L164 165L164 135L245 135L245 180L327 180L327 116L409 116L409 179L491 179L491 173L573 173L573 136L655 136L655 147L736 147L736 179L818 179L818 139L900 139L900 141L900 0L900 0L818 0L818 0L736 0L736 0L655 0L655 0L573 0L573 0L491 0L491 0L409 0L409 0L327 0L327 0L245 0L245 0L164 0L164 0L82 0L82 0L0 0Z" fill="#a4c3b2"></path><path d="M0 86L82 86L82 91L164 91L164 119L245 119L245 90L327 90L327 106L409 106L409 114L491 114L491 112L573 112L573 66L655 66L655 105L736 105L736 97L818 97L818 94L900 94L900 121L900 0L900 0L818 0L818 0L736 0L736 0L655 0L655 0L573 0L573 0L491 0L491 0L409 0L409 0L327 0L327 0L245 0L245 0L164 0L164 0L82 0L82 0L0 0Z" fill="#87a999"></path><path d="M0 36L82 36L82 85L164 85L164 54L245 54L245 25L327 25L327 69L409 69L409 60L491 60L491 65L573 65L573 73L655 73L655 77L736 77L736 31L818 31L818 63L900 63L900 40L900 0L900 0L818 0L818 0L736 0L736 0L655 0L655 0L573 0L573 0L491 0L491 0L409 0L409 0L327 0L327 0L245 0L245 0L164 0L164 0L82 0L82 0L0 0Z" fill="#6b9080"></path></svg>