<svg id="visual" viewBox="0 0 900 200" width="900" height="200" xmlns="http://www.w3.org/2000/svg" xmlns:xlink="http://www.w3.org/1999/xlink" version="1.1"><rect x="0" y="0" width="900" height="200" fill="#F6FFF8"></rect><path d="M0 24L129 24L129 32L257 32L257 31L386 31L386 41L514 41L514 58L643 58L643 20L771 20L771 96L900 96L900 59L900 201L900 201L771 201L771 201L643 201L643 201L514 201L514 201L386 201L386 201L257 201L257 201L129 201L129 201L0 201Z" fill="#a4c3b2"></path><path d="M0 72L129 72L129 106L257 106L257 77L386 77L386 135L514 135L514 110L643 110L643 143L771 143L771 75L900 75L900 115L900 201L900 201L771 201L771 201L643 201L643 201L514 201L514 201L386 201L386 201L257 201L257 201L129 201L129 201L0 201Z" fill="#87a999"></path><path d="M0 130L129 130L129 163L257 163L257 181L386 181L386 118L514 118L514 130L643 130L643 168L771 168L771 178L900 178L900 116L900 201L900 201L771 201L771 201L643 201L643 201L514 201L514 201L386 201L386 201L257 201L257 201L129 201L129 201L0 201Z" fill="#6b9080"></path></svg>