<svg id="visual" viewBox="0 0 900 200" width="900" height="200" xmlns="http://www.w3.org/2000/svg" xmlns:xlink="http://www.w3.org/1999/xlink" version="1.1"><rect x="0" y="0" width="900" height="200" fill="#F6FFF8"></rect><path d="M0 174L129 174L129 166L257 166L257 167L386 167L386 157L514 157L514 140L643 140L643 178L771 178L771 102L900 102L900 139L900 0L900 0L771 0L771 0L643 0L643 0L514 0L514 0L386 0L386 0L257 0L257 0L129 0L129 0L0 0Z" fill="#a4c3b2"></path><path d="M0 126L129 126L129 92L257 92L257 121L386 121L386 63L514 63L514 88L643 88L643 55L771 55L771 123L900 123L900 83L900 0L900 0L771 0L771 0L643 0L643 0L514 0L514 0L386 0L386 0L257 0L257 0L129 0L129 0L0 0Z" fill="#87a999"></path><path d="M0 68L129 68L129 35L257 35L257 17L386 17L386 80L514 80L514 68L643 68L643 30L771 30L771 20L900 20L900 82L900 0L900 0L771 0L771 0L643 0L643 0L514 0L514 0L386 0L386 0L257 0L257 0L129 0L129 0L0 0Z" fill="#6b9080"></path></svg>