<svg id="visual" viewBox="0 0 900 300" width="900" height="300" xmlns="http://www.w3.org/2000/svg" xmlns:xlink="http://www.w3.org/1999/xlink" version="1.1"><rect x="0" y="0" width="900" height="300" fill="#F6FFF8"></rect><path d="M0 141L82 141L82 162L164 162L164 141L245 141L245 177L327 177L327 158L409 158L409 146L491 146L491 129L573 129L573 138L655 138L655 180L736 180L736 188L818 188L818 141L900 141L900 181L900 301L900 301L818 301L818 301L736 301L736 301L655 301L655 301L573 301L573 301L491 301L491 301L409 301L409 301L327 301L327 301L245 301L245 301L164 301L164 301L82 301L82 301L0 301Z" fill="#a4c3b2"></path><path d="M0 198L82 198L82 174L164 174L164 162L245 162L245 184L327 184L327 240L409 240L409 218L491 218L491 235L573 235L573 165L655 165L655 232L736 232L736 215L818 215L818 231L900 231L900 196L900 301L900 301L818 301L818 301L736 301L736 301L655 301L655 301L573 301L573 301L491 301L491 301L409 301L409 301L327 301L327 301L245 301L245 301L164 301L164 301L82 301L82 301L0 301Z" fill="#87a999"></path><path d="M0 282L82 282L82 263L164 263L164 220L245 220L245 213L327 213L327 236L409 236L409 264L491 264L491 253L573 253L573 239L655 239L655 260L736 260L736 241L818 241L818 276L900 276L900 230L900 301L900 301L818 301L818 301L736 301L736 301L655 301L655 301L573 301L573 301L491 301L491 301L409 301L409 301L327 301L327 301L245 301L245 301L164 301L164 301L82 301L82 301L0 301Z" fill="#6b9080"></path></svg>