<svg id="visual" viewBox="0 0 900 200" width="900" height="200" xmlns="http://www.w3.org/2000/svg" xmlns:xlink="http://www.w3.org/1999/xlink" version="1.1"><rect x="0" y="0" width="900" height="200" fill="#F6FFF8"></rect><path d="M0 80L129 80L129 27L257 27L257 93L386 93L386 59L514 59L514 102L643 102L643 23L771 23L771 108L900 108L900 96L900 201L900 201L771 201L771 201L643 201L643 201L514 201L514 201L386 201L386 201L257 201L257 201L129 201L129 201L0 201Z" fill="#a4c3b2"></path><path d="M0 100L129 100L129 75L257 75L257 130L386 130L386 75L514 75L514 97L643 97L643 113L771 113L771 82L900 82L900 127L900 201L900 201L771 201L771 201L643 201L643 201L514 201L514 201L386 201L386 201L257 201L257 201L129 201L129 201L0 201Z" fill="#87a999"></path><path d="M0 125L129 125L129 138L257 138L257 147L386 147L386 170L514 170L514 163L643 163L643 136L771 136L771 148L900 148L900 121L900 201L900 201L771 201L771 201L643 201L643 201L514 201L514 201L386 201L386 201L257 201L257 201L129 201L129 201L0 201Z" fill="#6b9080"></path></svg>