<?xml version="1.0" standalone="no"?>
<!DOCTYPE svg PUBLIC "-//W3C//DTD SVG 20010904//EN"
 "http://www.w3.org/TR/2001/REC-SVG-20010904/DTD/svg10.dtd">
<svg version="1.0" xmlns="http://www.w3.org/2000/svg"
 width="1300.000000pt" height="1300.000000pt" viewBox="0 0 1300.000000 1300.000000"
 preserveAspectRatio="xMidYMid meet">
<metadata>
Created by potrace 1.14, written by Peter Selinger 2001-2017
</metadata>
<g transform="translate(0.000000,1300.000000) scale(0.100000,-0.100000)"
fill="#000000" stroke="none">
<path d="M7696 7489 c-71 -4 -132 -11 -136 -16 -4 -4 -28 -116 -53 -248 -25
-132 -102 -532 -171 -889 -69 -357 -123 -653 -120 -658 10 -16 152 1 221 27
35 12 88 38 120 56 115 69 275 256 302 354 27 99 211 1087 211 1134 0 59 -26
183 -46 224 -14 27 -16 27 -107 26 -50 -1 -150 -5 -221 -10z"/>
<path d="M4880 7457 c0 -2 -65 -359 -145 -793 -80 -434 -143 -795 -140 -801 6
-18 240 -17 347 2 46 8 115 27 153 42 l70 28 67 365 c37 201 97 527 133 725
37 198 69 377 72 398 l6 37 -282 0 c-154 0 -281 -2 -281 -3z"/>
<path d="M8820 7338 c71 -240 49 -661 -52 -992 -49 -161 -195 -404 -308 -511
-25 -24 -57 -72 -80 -120 -116 -242 -274 -402 -466 -471 -76 -28 -207 -43
-218 -25 -4 6 3 60 15 121 12 61 20 113 17 115 -2 3 -54 -4 -114 -14 -141 -25
-351 -41 -541 -41 l-151 0 -10 -47 c-32 -148 -63 -327 -59 -338 5 -13 17 -14
292 -46 501 -56 969 -20 1292 100 208 78 370 178 496 305 113 114 162 183 229
314 119 235 178 512 178 834 -1 346 -79 558 -273 733 -57 52 -219 145 -252
145 -10 0 -9 -14 5 -62z"/>
<path d="M5735 5534 c-49 -41 -162 -94 -244 -116 -55 -14 -133 -23 -286 -30
-444 -21 -460 -21 -682 8 -115 14 -226 27 -247 28 l-40 1 -40 -217 c-22 -120
-37 -220 -35 -223 3 -2 48 0 100 6 108 13 293 6 454 -16 621 -86 753 -86 922
-3 81 40 154 117 183 196 19 49 21 71 17 162 -3 79 -10 118 -27 157 -30 71
-39 76 -75 47z"/>
</g>
</svg>
